<?xml version="1.0" standalone="no"?>
<!DOCTYPE svg PUBLIC "-//W3C//DTD SVG 20010904//EN"
 "http://www.w3.org/TR/2001/REC-SVG-20010904/DTD/svg10.dtd">
<svg version="1.0" xmlns="http://www.w3.org/2000/svg"
 width="425.000000pt" height="425.000000pt" viewBox="0 0 425.000000 425.000000"
 preserveAspectRatio="xMidYMid meet">
<metadata>
Created by potrace 1.14, written by Peter Selinger 2001-2017
</metadata>
<g transform="translate(0.000000,425.000000) scale(0.100000,-0.100000)"
fill="#000000" stroke="none">
<path d="M1697 4214 c-110 -80 -162 -152 -196 -269 -26 -88 -50 -164 -62 -190
-8 -18 -48 -213 -64 -312 -4 -24 -7 -46 -8 -50 -1 -5 14 -16 33 -25 46 -22 32
-22 -81 2 -52 11 -143 23 -204 26 -203 12 -336 -29 -446 -136 -121 -119 -153
-283 -77 -392 25 -36 181 -173 247 -218 28 -19 73 -51 99 -70 60 -44 222 -128
287 -149 l50 -16 7 -81 c8 -95 23 -159 47 -194 10 -14 26 -47 36 -75 19 -53
73 -115 98 -115 9 0 23 -10 31 -22 9 -12 19 -19 23 -15 3 4 7 46 8 92 1 47 4
87 6 89 8 8 39 -21 42 -40 11 -59 29 -104 43 -104 8 0 19 -11 24 -24 5 -13 17
-30 27 -37 10 -8 27 -27 38 -44 10 -16 25 -36 32 -43 7 -7 13 -20 13 -27 0 -8
9 -19 19 -25 21 -11 25 -54 5 -46 -6 2 -16 0 -22 -6 -8 -8 -16 -7 -28 3 -14
11 -18 11 -29 -4 -18 -24 -34 -21 -27 6 5 19 3 20 -10 10 -8 -7 -17 -10 -20
-7 -4 3 -21 8 -40 11 -45 7 -58 20 -59 57 0 17 -4 39 -8 49 -6 17 -11 14 -43
-21 -53 -58 -67 -91 -74 -172 -9 -93 24 -210 65 -232 43 -22 112 -100 191
-214 76 -111 113 -152 304 -332 61 -56 120 -118 133 -138 27 -39 38 -38 48 8
19 86 102 254 168 341 13 17 31 46 40 63 16 31 53 54 87 54 10 0 25 8 32 18 7
10 35 35 62 55 27 20 66 60 88 89 39 54 58 69 58 48 0 -15 -70 -108 -113 -149
-20 -18 -33 -40 -30 -47 3 -8 -2 -16 -10 -20 -23 -8 -40 -63 -38 -116 4 -66
-23 -152 -51 -167 l-23 -12 23 5 c19 4 22 0 22 -32 0 -46 12 -32 33 39 10 31
24 62 32 69 20 16 20 4 -1 -83 -13 -51 -14 -71 -5 -80 8 -8 11 -6 11 10 0 12
8 23 19 26 10 2 18 -1 18 -7 -1 -23 16 -76 24 -76 5 0 9 26 9 57 0 38 5 62 16
75 13 14 14 21 5 32 -9 11 -8 15 5 20 22 8 21 9 32 -23 8 -22 7 -31 -1 -35 -9
-3 -9 -5 1 -5 7 -1 12 -15 12 -35 0 -41 12 -51 40 -36 17 9 20 8 20 -8 0 -10
-3 -22 -7 -25 -3 -4 -6 -68 -5 -142 0 -74 -2 -135 -6 -135 -4 0 -6 -17 -4 -39
2 -21 -1 -42 -7 -45 -6 -4 -11 -27 -11 -52 0 -24 -2 -44 -4 -44 -3 0 -16 4
-30 10 -29 10 -31 8 -16 -20 7 -13 7 -28 -1 -46 -7 -21 -7 -34 2 -51 11 -20 9
-30 -8 -66 -12 -25 -19 -61 -19 -87 l1 -45 401 -3 c351 -2 403 0 414 13 11 13
9 19 -9 38 -11 13 -21 27 -21 32 0 5 -7 16 -15 25 -24 26 -64 108 -90 183 -51
146 -23 126 65 -47 33 -66 60 -125 60 -132 0 -6 7 -17 15 -24 8 -7 15 -22 15
-34 0 -11 7 -29 14 -38 12 -17 43 -18 395 -18 l381 0 0 380 c0 209 -3 380 -8
380 -12 0 -102 86 -102 97 0 12 -97 136 -111 141 -12 5 -12 3 7 -79 9 -39 13
-73 10 -76 -10 -11 -35 18 -42 50 -7 33 -59 106 -103 144 -30 26 -59 30 -67 8
-8 -20 15 -142 32 -176 7 -15 34 -78 59 -140 25 -63 50 -122 55 -132 37 -64
62 -157 65 -247 3 -78 2 -85 -4 -42 -17 105 -44 208 -67 252 -13 25 -37 79
-54 120 -30 73 -73 167 -91 202 -5 10 -9 25 -9 33 0 25 -41 105 -60 115 -9 5
-33 11 -53 13 -20 2 -46 12 -57 22 -11 10 -23 15 -26 12 -8 -8 21 -53 54 -83
16 -16 25 -36 27 -64 2 -22 2 -40 0 -40 -18 0 -55 22 -55 33 0 7 -18 23 -40
36 -58 33 -51 8 20 -71 59 -65 74 -98 45 -98 -8 0 -15 4 -15 8 0 5 -19 17 -42
27 -24 10 -71 31 -104 47 -71 34 -127 38 -198 14 -26 -9 -56 -16 -68 -16 -20
0 -21 1 -3 20 10 11 16 20 14 21 -15 3 -99 -2 -125 -7 -21 -4 -34 -1 -43 10
-14 16 -51 22 -51 9 1 -23 24 -36 76 -42 l59 -7 -47 -8 c-43 -6 -52 -4 -91 23
-55 38 -76 61 -54 61 9 0 19 -4 22 -10 12 -19 25 -10 45 29 l20 40 -20 6 c-28
9 -15 25 21 25 20 0 29 5 29 16 0 13 -7 15 -32 11 -18 -3 -40 -8 -48 -11 -8
-3 -22 -1 -30 4 -13 8 -12 12 8 25 29 21 28 33 -3 47 -30 14 -31 22 -5 48 13
13 15 20 7 20 -7 0 -27 -14 -44 -30 -41 -40 -50 -24 -18 32 14 23 25 46 25 50
0 4 -15 11 -32 16 -25 7 -32 14 -31 30 2 12 -4 22 -13 24 -16 3 -38 63 -79
216 -14 52 -25 3 -25 -114 0 -74 -5 -134 -11 -147 -7 -12 -31 -43 -54 -68 -62
-66 -99 -129 -86 -142 21 -21 10 -87 -14 -87 -8 0 -16 -17 -20 -40 -11 -65
-24 -36 -20 44 4 90 18 119 100 211 74 83 85 103 85 148 0 33 -24 67 -48 67
-16 0 -15 6 2 33 42 65 58 226 30 297 -16 40 -16 42 15 123 18 45 39 97 47
116 8 19 17 64 20 100 5 59 4 64 -9 48 -8 -10 -23 -48 -33 -85 -9 -37 -24 -78
-31 -92 -14 -25 -14 -24 -9 10 3 19 10 62 16 95 6 33 8 78 4 99 -7 45 -71 176
-86 176 -5 0 -7 9 -3 20 11 35 -7 45 -21 11 -9 -21 -20 -31 -34 -31 -12 0 -35
-8 -53 -17 -23 -12 -52 -16 -102 -14 -38 1 -71 4 -74 6 -2 3 2 11 8 19 11 13
9 16 -12 21 -33 9 -70 3 -74 -11 -2 -7 8 -15 23 -18 16 -4 23 -11 18 -16 -14
-14 -80 7 -104 32 l-19 21 -5 -24 c-3 -13 -7 -32 -8 -42 -2 -10 -7 -17 -12
-17 -5 1 -13 -6 -18 -15 -7 -12 -17 -15 -40 -10 -24 6 -30 3 -35 -13 -2 -11
-13 -22 -24 -25 -10 -3 -19 -13 -19 -22 0 -9 -5 -13 -10 -10 -6 3 -13 -1 -16
-9 -3 -9 -12 -16 -18 -16 -24 0 -67 -121 -59 -164 7 -34 -5 -78 -19 -74 -7 3
-12 18 -13 34 0 24 -5 30 -27 32 -28 3 -36 16 -18 27 5 3 7 12 3 20 -3 9 0 21
6 28 8 10 3 19 -22 37 -52 38 -77 64 -77 81 0 22 -26 43 -44 36 -12 -5 -13 -1
-6 19 8 19 6 26 -5 30 -8 4 -15 15 -15 25 0 11 -7 22 -15 25 -8 4 -15 19 -15
35 0 16 -8 33 -19 41 -20 14 -41 100 -41 168 0 20 -5 41 -11 47 -8 8 -8 20 0
45 10 32 16 179 11 281 -1 33 3 54 14 66 9 10 13 21 9 25 -4 4 -1 11 7 17 13
8 13 10 0 19 -13 8 -13 10 2 10 9 0 24 -3 33 -6 13 -6 14 -9 3 -16 -9 -7 -7
-8 7 -3 11 4 33 9 48 12 26 4 28 3 17 -16 -7 -14 -7 -21 0 -21 5 0 10 4 10 10
0 5 7 7 16 3 12 -4 14 -14 9 -41 -7 -37 -24 -72 -40 -84 -6 -4 -2 -8 8 -8 10
0 20 8 23 18 17 50 37 81 55 87 28 9 33 1 13 -19 -23 -23 -10 -32 23 -15 16 7
31 15 36 17 4 2 7 -3 7 -11 0 -8 -7 -18 -16 -21 -12 -5 -13 -10 -5 -19 8 -10
7 -17 -1 -25 -14 -14 -16 -14 90 -12 81 1 105 -11 45 -23 -44 -9 -111 -63
-128 -103 -18 -44 -19 -57 -2 -51 6 2 12 11 12 20 0 19 47 57 71 57 10 0 57
-5 105 -11 72 -9 88 -15 92 -30 3 -11 12 -19 21 -19 24 0 19 -22 -11 -45 -15
-13 -23 -27 -19 -33 10 -17 43 -15 50 3 10 27 48 34 70 13 22 -20 36 -10 36
30 0 12 4 22 9 22 5 0 11 14 13 30 5 33 -3 38 -22 15 -14 -17 -34 -9 -26 10 7
19 -18 37 -56 41 -37 5 -67 29 -53 42 6 5 28 14 51 21 41 13 52 33 32 58 -14
18 20 29 43 15 30 -19 41 -15 28 9 -8 17 -17 20 -40 15 -27 -5 -51 8 -28 16 7
2 7 12 0 31 -11 29 -1 36 19 12 12 -14 15 -14 36 0 22 14 24 13 35 -6 6 -13 9
-40 5 -65 -7 -55 11 -69 20 -15 7 43 28 80 39 69 10 -10 22 -160 15 -188 -3
-14 -16 -29 -29 -35 -16 -7 -21 -16 -18 -32 2 -12 -1 -24 -7 -26 -7 -2 -4 -10
7 -21 9 -10 17 -24 17 -32 0 -8 5 -14 11 -14 7 0 9 -12 5 -32 -5 -29 -2 -36
24 -53 34 -23 38 -35 13 -35 -15 0 -16 -2 -3 -10 12 -8 9 -10 -13 -10 -16 0
-26 4 -22 10 4 6 -5 10 -20 10 -14 0 -24 -4 -20 -9 3 -6 -4 -15 -15 -21 -11
-6 -20 -17 -20 -25 0 -11 -8 -13 -29 -9 -37 8 -61 -6 -85 -47 -17 -30 -18 -32
-2 -26 10 4 31 7 46 7 17 0 40 10 56 25 15 14 28 25 30 25 2 0 28 -9 59 -21
40 -15 64 -18 88 -13 17 4 38 8 46 8 8 1 18 14 22 30 7 24 3 33 -28 61 -28 25
-34 37 -28 51 5 11 7 25 6 32 -4 22 32 9 39 -13 3 -13 15 -21 34 -22 16 -1 37
-9 47 -19 10 -9 22 -13 28 -10 5 4 14 -2 20 -11 7 -13 13 -15 21 -7 12 12 -24
60 -50 66 -20 4 -56 49 -52 66 2 7 -6 16 -18 19 -16 4 -18 8 -9 19 8 10 8 14
0 14 -6 0 -11 6 -11 14 0 21 49 34 108 28 42 -4 52 -8 52 -23 0 -10 -8 -22
-17 -28 -26 -14 -12 -21 30 -14 27 4 39 12 42 27 9 36 -9 79 -40 96 -30 16
-45 40 -26 40 24 0 91 -36 91 -48 0 -8 6 -12 14 -9 20 8 26 -25 19 -101 -6
-64 -6 -64 16 -51 12 8 24 24 27 36 8 29 24 20 24 -13 0 -13 2 -24 5 -24 2 0
28 11 58 24 29 13 71 29 92 36 48 16 276 125 362 174 106 59 217 158 251 223
17 31 15 83 -2 83 -26 0 -241 -48 -285 -64 -51 -19 -61 -20 -61 -6 0 5 20 15
45 21 26 7 45 17 45 25 0 20 -17 18 -90 -11 -57 -22 -103 -50 -75 -45 6 2 17
1 25 0 8 -1 -16 -8 -55 -16 -92 -17 -206 -17 -395 0 -85 8 -231 20 -325 27
-93 6 -173 15 -177 18 -13 11 520 11 548 1 36 -14 39 -8 18 32 -10 18 -17 38
-16 45 2 7 -4 38 -12 70 -37 151 -57 215 -94 298 -22 50 -43 101 -47 115 -4
14 -28 59 -53 100 -98 162 -149 274 -198 438 -3 9 -88 12 -386 12 l-383 0 -48
-36z m-212 -874 c18 -8 17 -9 -7 -9 -15 -1 -30 4 -33 9 -7 12 12 12 40 0z
m108 -47 c-7 -2 -19 -2 -25 0 -7 3 -2 5 12 5 14 0 19 -2 13 -5z m136 -39 c10
-9 -35 -3 -49 6 -11 8 -7 9 15 4 17 -4 32 -8 34 -10z m431 -183 c0 -17 -14
-18 -40 -5 l-25 14 33 0 c17 0 32 -4 32 -9z m-423 -7 c-3 -3 -12 -4 -19 -1 -8
3 -5 6 6 6 11 1 17 -2 13 -5z m473 -18 c0 -18 -15 -36 -31 -36 -17 0 -18 3 -7
20 11 17 38 28 38 16z m50 -66 c-10 -20 -17 -21 -58 -15 -47 7 -71 19 -60 31
4 3 15 1 26 -5 14 -8 27 -6 53 8 39 22 56 13 39 -19z m250 15 c0 -16 -6 -25
-15 -25 -15 0 -21 31 -8 43 13 14 23 6 23 -18z m69 3 c-1 -7 1 -21 5 -30 11
-24 -39 -77 -55 -61 -9 9 -8 18 5 37 9 14 16 34 16 46 0 11 7 20 15 20 9 0 15
-6 14 -12z m-294 -258 c-5 -8 -11 -8 -21 1 -12 10 -12 14 -2 20 16 10 33 -5
23 -21z m-1065 -50 c0 -5 -4 -10 -10 -10 -5 0 -10 5 -10 10 0 6 5 10 10 10 6
0 10 -4 10 -10z m269 -42 c23 -62 23 -66 -2 -61 -19 4 -23 10 -19 29 3 18 0
24 -14 24 -18 1 -18 1 0 15 25 19 25 19 35 -7z m-249 -13 c0 -8 -4 -15 -10
-15 -5 0 -10 7 -10 15 0 8 5 15 10 15 6 0 10 -7 10 -15z m59 -27 l14 -33 4 28
c3 18 10 27 23 27 27 0 34 -17 31 -70 -2 -39 3 -53 26 -81 64 -77 107 -106
130 -87 10 8 13 7 14 -3 2 -22 5 -32 13 -54 27 -69 28 -75 16 -90 -10 -12 -10
-18 0 -30 23 -27 2 -29 -47 -3 -69 35 -156 142 -184 226 -12 37 -33 91 -46
120 -12 29 -23 59 -23 67 0 26 15 16 29 -17z m221 -108 c11 -60 7 -73 -15 -44
-15 19 -20 85 -8 97 10 10 12 5 23 -53z m1012 -411 c2 -7 17 -7 48 0 50 11
100 4 100 -14 0 -7 -41 -18 -114 -30 -129 -20 -386 -19 -407 2 -9 9 -6 13 15
19 14 3 33 3 42 0 9 -3 21 -3 27 1 6 4 61 6 123 5 83 -1 115 2 130 13 23 17
31 18 36 4z m-789 -33 c-3 -4 -9 -2 -14 5 -13 22 -11 31 5 17 8 -7 12 -17 9
-22z m317 -26 c0 -5 -4 -10 -10 -10 -5 0 -10 5 -10 10 0 6 5 10 10 10 6 0 10
-4 10 -10z m210 -43 c36 -5 106 -11 156 -11 74 -1 96 2 111 16 11 10 40 21 65
24 39 6 47 4 51 -12 12 -40 10 -90 -3 -121 -16 -35 -31 -44 -27 -15 2 19 -2
22 -40 22 -26 0 -26 -1 -7 -14 19 -14 19 -15 0 -22 -13 -5 -23 -2 -31 9 -7 9
-15 14 -18 10 -15 -14 -69 -8 -78 9 -12 22 -41 24 -33 3 4 -9 -1 -17 -12 -21
-11 -3 -27 -10 -36 -15 -10 -5 -29 -9 -42 -9 -14 0 -36 -4 -50 -10 -24 -9 -26
-7 -26 15 0 14 6 25 13 25 8 0 8 3 -2 9 -17 11 -41 3 -41 -13 0 -6 -19 -12
-46 -12 -26 -1 -41 2 -34 6 15 9 -5 24 -23 17 -7 -3 -18 6 -24 19 -9 19 -6 32
12 73 l23 49 39 -10 c21 -5 67 -15 103 -21z m480 -928 c0 -6 -7 -17 -15 -26
-9 -9 -13 -23 -10 -34 5 -14 1 -19 -14 -19 -51 0 -65 26 -35 68 16 23 74 32
74 11z m254 -40 c-3 -5 -10 -7 -15 -3 -5 3 -7 10 -3 15 3 5 10 7 15 3 5 -3 7
-10 3 -15z m-9 -196 c23 -45 49 -90 58 -101 39 -43 -5 -44 -58 -2 -40 31 -81
47 -93 36 -3 -4 4 -9 16 -13 12 -3 22 -13 22 -23 0 -10 3 -25 6 -34 5 -14 -1
-15 -46 -11 -32 3 -58 1 -66 -6 -11 -9 -14 -6 -14 15 0 35 17 66 35 66 22 0
18 18 -5 25 -25 8 -25 14 0 44 16 19 23 21 34 11 8 -6 27 -10 43 -7 l28 4 -31
7 c-33 8 -61 46 -49 66 4 6 23 10 43 8 35 -3 39 -6 77 -85z m401 29 c26 -35
49 -91 40 -100 -4 -4 -12 1 -17 10 -5 9 -25 35 -44 58 -19 23 -35 46 -35 51 0
19 36 7 56 -19z m-326 -233 c9 -32 18 -44 41 -52 16 -6 29 -15 29 -20 0 -5
-28 -44 -63 -86 -88 -107 -157 -200 -157 -211 0 -13 -18 -22 -30 -15 -8 5 -7
11 1 21 6 7 9 20 6 28 -3 8 1 20 9 26 8 7 14 18 14 24 0 6 16 27 35 45 25 24
34 39 30 52 -5 14 0 22 17 29 22 10 21 10 -4 5 -16 -3 -28 -1 -28 5 0 5 4 10
9 10 11 0 8 61 -4 80 -5 8 -4 11 3 6 6 -4 23 -4 37 0 20 5 23 9 13 15 -7 5
-20 6 -28 4 -9 -3 -20 6 -28 23 -11 23 -10 29 5 39 9 7 32 13 50 13 29 0 33
-4 43 -41z m-110 -39 c0 -18 -3 -19 -21 -9 -17 9 -19 13 -8 20 22 14 29 11 29
-11z m795 -215 c44 -19 85 -62 107 -112 19 -42 19 -46 3 -86 -21 -53 -40 -74
-89 -98 -53 -25 -104 -24 -168 4 -52 23 -105 67 -62 50 10 -4 24 -13 30 -21 6
-8 16 -12 22 -8 7 4 12 3 12 -2 0 -5 6 -9 13 -9 6 0 22 -3 33 -7 17 -5 23 -2
28 16 6 22 7 22 20 5 18 -23 70 -15 104 16 22 21 30 47 13 47 -5 0 -7 9 -4 20
6 22 23 27 23 8 0 -9 3 -9 9 1 9 14 9 18 -4 56 -5 16 -8 17 -16 5 -8 -12 -10
-10 -6 8 7 31 -32 30 -63 -3 -20 -21 -22 -28 -12 -49 6 -14 23 -32 37 -42 30
-20 32 -40 5 -47 -11 -3 -20 -1 -20 4 0 5 5 9 11 9 19 0 -2 20 -43 40 l-40 19
-25 -25 c-18 -18 -29 -22 -36 -15 -8 8 -5 17 11 31 12 12 22 26 22 33 0 7 -4
6 -10 -3 -6 -9 -13 -11 -17 -5 -5 6 -17 12 -28 13 -26 5 -26 5 -15 22 7 11 11
11 24 1 13 -11 18 -10 33 4 16 17 16 17 -3 11 -18 -5 -20 -2 -16 29 5 40 12
43 37 15 21 -23 85 -25 92 -3 7 22 -67 45 -122 39 l-50 -6 24 20 c13 11 19 20
15 20 -5 0 -2 5 6 10 17 11 70 4 115 -15z m-205 -129 c0 -3 -4 -8 -10 -11 -5
-3 -10 -1 -10 4 0 6 5 11 10 11 6 0 10 -2 10 -4z m210 -126 c0 -5 -10 -10 -22
-9 -22 0 -22 1 -3 9 11 5 21 9 23 9 1 1 2 -3 2 -9z m-95 -10 c8 -13 -5 -13
-25 0 -13 8 -13 10 2 10 9 0 20 -4 23 -10z"/>
<path d="M1360 2439 c0 -17 69 -99 70 -83 0 6 -14 29 -31 50 -40 50 -39 50
-39 33z"/>
<path d="M3695 260 c-3 -5 -1 -10 4 -10 6 0 11 5 11 10 0 6 -2 10 -4 10 -3 0
-8 -4 -11 -10z"/>
<path d="M2565 4210 c-16 -27 39 -168 76 -194 14 -10 27 -12 33 -6 16 16 -15
102 -56 158 -41 56 -43 57 -53 42z"/>
<path d="M1848 2653 c7 -3 16 -2 19 1 4 3 -2 6 -13 5 -11 0 -14 -3 -6 -6z"/>
<path d="M2644 2473 c7 -15 18 -39 24 -53 10 -23 11 -21 11 23 1 26 -3 47 -8
47 -5 0 -16 3 -25 6 -14 5 -14 2 -2 -23z"/>
<path d="M1816 2191 c-4 -7 -5 -15 -2 -18 9 -9 19 4 14 18 -4 11 -6 11 -12 0z"/>
<path d="M1336 1539 c-20 -30 -43 -48 -91 -69 -69 -31 -84 -49 -110 -125 -9
-27 -28 -63 -43 -78 -38 -41 -139 -88 -187 -89 -22 0 -49 -4 -59 -8 -16 -6
-12 -10 28 -25 86 -33 85 -67 -6 -176 -48 -58 -71 -77 -105 -88 -24 -8 -48
-23 -54 -33 -20 -37 -101 -12 -171 54 -28 26 -55 48 -60 48 -16 0 -7 -20 25
-57 24 -28 27 -35 12 -29 -42 17 -56 18 -85 6 -27 -11 -90 -90 -90 -114 0 -12
-80 -136 -89 -136 -3 0 -12 -4 -20 -9 -12 -8 -12 -12 -2 -25 11 -13 11 -19 1
-31 -9 -11 -9 -19 -2 -28 10 -12 6 -57 -5 -57 -3 0 -19 10 -36 22 -31 23 -46
35 -89 73 l-22 19 39 11 c21 7 40 16 42 22 2 6 13 9 23 6 14 -4 20 0 20 12 0
11 5 15 14 12 24 -10 48 16 44 48 -2 19 3 36 14 46 9 8 18 27 20 41 2 14 9 32
16 41 7 8 10 22 6 31 -4 10 0 18 10 22 25 10 19 34 -9 34 -30 0 -76 -20 -70
-31 3 -4 -8 -17 -25 -29 -17 -12 -28 -25 -25 -30 3 -5 -11 -18 -30 -30 -20
-12 -43 -33 -52 -46 -12 -19 -18 -22 -30 -13 -18 16 -24 8 -25 -32 0 -19 -5
-40 -11 -46 -5 -7 -6 -13 -2 -13 4 0 2 -6 -4 -14 -8 -9 -8 -21 0 -44 6 -18 9
-37 6 -44 -3 -8 -6 -6 -6 5 -1 9 -6 17 -11 17 -6 0 -15 10 -20 22 -5 15 -9
-89 -9 -279 l-1 -303 529 0 528 0 -5 25 c-3 18 0 25 12 25 9 0 16 -4 16 -9 0
-5 8 -8 18 -7 10 0 16 -6 16 -16 -2 -17 13 -18 171 -18 191 0 191 0 174 63
-10 36 -2 57 22 57 10 0 19 5 19 11 0 6 -8 8 -19 4 -18 -5 -19 0 -17 67 1 40
7 82 13 94 8 14 9 31 3 50 l-8 29 -1 -27 c-1 -16 -6 -28 -12 -28 -7 0 -9 11
-6 30 4 16 3 31 -2 34 -4 3 -8 30 -9 61 -1 30 -6 64 -12 74 -5 11 -10 39 -10
63 0 49 -23 186 -39 238 -20 64 -7 85 18 30 10 -25 16 -29 27 -19 8 7 17 9 20
6 3 -3 -3 -12 -15 -19 -30 -18 -27 -42 4 -36 14 3 25 1 25 -3 0 -5 -7 -9 -15
-9 -8 0 -15 -4 -15 -10 0 -5 0 -12 0 -15 0 -3 3 -4 6 -2 3 1 10 -6 15 -15 11
-19 2 -68 -12 -68 -5 0 -9 -7 -9 -16 0 -8 5 -12 10 -9 6 3 13 -1 16 -9 3 -9
14 -16 23 -16 13 0 13 2 2 9 -7 5 -11 15 -8 22 3 9 11 0 20 -21 18 -42 34
-245 17 -218 -12 19 -40 13 -40 -9 0 -8 4 -11 10 -8 5 3 21 -6 35 -21 22 -24
24 -29 10 -37 -14 -7 -13 -11 7 -28 13 -11 17 -18 11 -14 -9 4 -13 -2 -13 -20
0 -17 4 -24 11 -19 8 5 10 -3 7 -25 -3 -18 0 -35 5 -38 31 -19 31 78 -1 317
-17 127 -34 331 -28 337 2 3 10 -13 17 -36 7 -22 20 -48 31 -57 18 -18 26 -70
8 -59 -5 3 -10 0 -10 -8 0 -8 7 -18 16 -21 11 -4 14 -13 10 -31 -4 -14 -2 -25
4 -25 5 0 10 -8 10 -17 1 -17 1 -17 14 0 31 40 49 293 22 303 -8 3 -17 20 -20
39 -4 18 -13 39 -21 45 -10 8 -14 28 -13 55 1 27 -5 48 -16 61 -79 88 -156
198 -161 231 -3 21 -10 61 -15 88 -5 28 -12 76 -16 108 -3 31 -10 59 -14 62
-4 3 -20 -14 -34 -36z m169 -549 c3 -5 0 -10 -7 -11 -7 0 -5 -4 5 -7 16 -7 16
-9 -3 -25 -19 -16 -20 -16 -20 18 0 34 12 46 25 25z m38 -23 c-3 -5 -9 -3 -14
4 -4 7 -5 17 -2 22 3 5 9 3 14 -4 4 -7 5 -17 2 -22z m-163 -6 c0 -6 -4 -13
-10 -16 -5 -3 -10 1 -10 9 0 9 5 16 10 16 6 0 10 -4 10 -9z m-380 -378 c23 6
28 -11 6 -19 -17 -7 -56 12 -56 28 0 7 5 6 15 -2 8 -7 24 -10 35 -7z"/>
<path d="M1440 1359 c-7 -11 -9 -31 -6 -44 6 -23 73 -118 120 -168 38 -41 74
-107 81 -152 4 -22 14 -46 23 -52 9 -7 16 -21 17 -30 4 -35 37 -158 46 -167 5
-6 9 -22 9 -37 0 -30 15 -47 23 -26 3 7 4 34 2 60 -3 35 0 47 11 47 8 0 14 -6
14 -14 0 -8 15 -27 33 -43 18 -16 36 -37 40 -46 3 -9 11 -17 17 -17 14 0 13
17 -2 24 -10 5 -10 7 0 12 16 8 15 29 -3 44 -8 7 -15 21 -15 31 0 9 -6 24 -13
31 -7 7 -21 32 -32 56 -10 24 -38 60 -62 80 -45 39 -62 72 -57 110 2 12 -1 22
-6 22 -17 0 -100 123 -100 149 0 24 -1 24 -14 6 -13 -18 -15 -17 -35 15 -12
19 -19 43 -17 54 5 21 -31 76 -51 76 -7 0 -17 -9 -23 -21z"/>
<path d="M0 1184 c0 -14 8 -16 53 -10 28 3 77 6 107 7 87 2 22 17 -77 18 -71
1 -83 -1 -83 -15z"/>
<path d="M690 1178 c-124 -21 -189 -42 -294 -94 -61 -31 -118 -61 -126 -69 -8
-7 -25 -16 -37 -19 -28 -9 -52 -36 -30 -36 8 0 20 6 26 14 7 8 24 17 38 21 15
3 37 15 51 25 13 11 40 22 61 26 20 4 49 17 64 30 16 13 38 26 50 28 118 24
149 27 162 16 16 -13 35 -5 35 15 0 8 16 16 39 20 22 3 47 13 58 20 17 13 16
14 -12 13 -16 0 -55 -5 -85 -10z"/>
<path d="M779 1134 c-30 -37 37 -72 108 -55 21 5 31 9 22 10 -22 1 -74 28 -89
46 -16 19 -24 19 -41 -1z"/>
<path d="M740 1061 c0 -11 31 -24 39 -16 3 3 -1 10 -9 15 -19 12 -30 12 -30 1z"/>
<path d="M381 1021 c-14 -10 -19 -21 -13 -24 5 -4 17 4 26 18 20 30 18 30 -13
6z"/>
<path d="M3272 970 c-10 -17 -9 -23 9 -41 11 -11 27 -18 36 -15 8 3 21 6 29 6
22 0 17 17 -13 45 -33 30 -44 31 -61 5z"/>
<path d="M334 964 c3 -9 6 -20 6 -25 0 -14 26 -11 40 6 10 13 9 15 -9 15 -11
0 -21 5 -21 10 0 6 -5 10 -11 10 -6 0 -8 -7 -5 -16z"/>
<path d="M150 945 c-10 -12 -10 -15 4 -15 9 0 16 7 16 15 0 8 -2 15 -4 15 -2
0 -9 -7 -16 -15z"/>
<path d="M2410 839 c0 -5 5 -7 10 -4 6 3 10 8 10 11 0 2 -4 4 -10 4 -5 0 -10
-5 -10 -11z"/>
<path d="M12 818 c-7 -7 -12 -26 -12 -42 l0 -31 20 33 c28 46 23 71 -8 40z"/>
<path d="M2405 780 c-8 -13 5 -13 25 0 13 8 13 10 -2 10 -9 0 -20 -4 -23 -10z"/>
<path d="M2507 728 c2 -35 0 -46 -5 -34 -10 24 -27 -54 -38 -174 -3 -41 -11
-86 -16 -100 -5 -14 -11 -101 -13 -193 -2 -92 -7 -181 -10 -197 -6 -26 -4 -30
14 -30 21 0 21 4 20 168 -2 163 -1 168 25 216 14 27 26 55 26 62 0 7 4 23 9
36 5 13 9 26 10 30 1 4 6 22 11 39 5 18 7 36 3 42 -3 5 -7 28 -9 50 -9 122
-32 194 -27 85z"/>
<path d="M1571 714 c0 -11 3 -14 6 -6 3 7 2 16 -1 19 -3 4 -6 -2 -5 -13z"/>
<path d="M2585 719 c-10 -15 3 -25 16 -12 7 7 7 13 1 17 -6 3 -14 1 -17 -5z"/>
<path d="M1910 570 c0 -5 5 -10 11 -10 5 0 7 5 4 10 -3 6 -8 10 -11 10 -2 0
-4 -4 -4 -10z"/>
<path d="M1920 540 c0 -5 5 -10 10 -10 6 0 10 5 10 10 0 6 -4 10 -10 10 -5 0
-10 -4 -10 -10z"/>
<path d="M1947 538 c-5 -16 21 -96 34 -104 5 -3 9 -13 9 -23 0 -10 9 -30 20
-44 21 -26 27 -53 11 -42 -5 3 -12 -4 -16 -15 -4 -13 5 -45 24 -86 31 -66 40
-111 21 -99 -5 3 -10 1 -10 -4 0 -6 -6 -11 -14 -11 -24 0 -29 -19 -15 -66 13
-42 15 -44 50 -44 l36 0 7 251 c4 138 6 252 4 254 -1 1 -21 0 -43 -4 -30 -5
-36 -8 -22 -14 11 -4 23 -5 27 -2 5 3 11 1 15 -5 3 -5 0 -10 -8 -10 -17 0 -19
-27 -4 -58 7 -15 8 -32 1 -49 -13 -38 -30 -39 -38 -1 -8 40 -57 148 -67 148
-4 0 -5 9 -2 20 6 21 -12 28 -20 8z"/>
<path d="M1450 520 c0 -11 7 -20 15 -20 17 0 18 2 9 24 -9 23 -24 20 -24 -4z"/>
<path d="M1486 212 c-7 -12 22 -38 31 -28 4 3 0 14 -9 22 -9 10 -18 12 -22 6z"/>
<path d="M1565 116 l3 -46 -34 0 c-32 0 -47 -14 -23 -22 9 -3 9 -10 0 -26 -12
-23 -6 -28 17 -14 7 5 10 16 6 27 -5 13 -3 16 7 13 8 -2 15 -14 17 -26 3 -18
10 -22 36 -22 35 0 62 21 51 40 -3 5 -19 8 -36 5 -23 -4 -29 -2 -29 12 0 10 9
24 20 31 11 7 20 21 20 33 0 12 -4 17 -11 14 -5 -4 -18 0 -29 10 -17 15 -18
14 -15 -29z"/>
</g>
</svg>
